# xmcd CD database file
#
# Track frame offsets:
#	150
#	22400
#	41442
#	62427
#	82210
#	103375
#	122587
#	139837
#	158035
#	175332
#
# Disc length: 2599 seconds
#
# Revision: 2
# Processed by: cddbd v1.5.1PL0 Copyright (c) Steve Scherf et al.
# Submitted via: CDex 1.51
#
DISCID=8b0a250a
DTITLE=田村英里子 - 少女でいられたら
DYEAR=1900
DGENRE=JPop
TTITLE0=最後に教えて
TTITLE1=I DO LOVE YOU
TTITLE2=少女でいられたら
TTITLE3=悲しい一線
TTITLE4=囁きに負けちゃう
TTITLE5=別れまぎわのYES
TTITLE6=幸せの入り口
TTITLE7=RAIN DROPS
TTITLE8=めまい
TTITLE9=今日だけSingle Girl
EXTD=
EXTT0=
EXTT1=
EXTT2=
EXTT3=
EXTT4=
EXTT5=
EXTT6=
EXTT7=
EXTT8=
EXTT9=
PLAYORDER=
